<mxfile host="Electron" modified="2023-12-12T21:43:54.283Z" agent="Mozilla/5.0 (Windows NT 10.0; Win64; x64) AppleWebKit/537.36 (KHTML, like Gecko) draw.io/22.1.2 Chrome/114.0.5735.289 Electron/25.9.4 Safari/537.36" etag="awlKFC2iyBhBMuYaVKlm" version="22.1.2" type="device">
  <diagram name="Page-1" id="5UiYwpYJZTsSI2AqwJZY">
    <mxGraphModel dx="2412" dy="1037" grid="1" gridSize="10" guides="1" tooltips="1" connect="1" arrows="1" fold="1" page="1" pageScale="1" pageWidth="850" pageHeight="1100" math="0" shadow="0">
      <root>
        <mxCell id="0" />
        <mxCell id="1" parent="0" />
        <mxCell id="9k3ozad7-vAkzGbdjPDx-14" style="edgeStyle=orthogonalEdgeStyle;rounded=0;orthogonalLoop=1;jettySize=auto;html=1;endArrow=ERoneToMany;endFill=0;" parent="1" source="9k3ozad7-vAkzGbdjPDx-15" target="9k3ozad7-vAkzGbdjPDx-4" edge="1">
          <mxGeometry relative="1" as="geometry">
            <Array as="points">
              <mxPoint x="120" y="410" />
            </Array>
          </mxGeometry>
        </mxCell>
        <mxCell id="Hv7GfvZW4lcu2BsyJIzJ-2" style="edgeStyle=orthogonalEdgeStyle;rounded=0;orthogonalLoop=1;jettySize=auto;html=1;startArrow=ERmandOne;startFill=0;endArrow=none;endFill=0;" parent="1" source="9k3ozad7-vAkzGbdjPDx-1" target="Hv7GfvZW4lcu2BsyJIzJ-1" edge="1">
          <mxGeometry relative="1" as="geometry">
            <Array as="points">
              <mxPoint x="145" y="350" />
              <mxPoint x="295" y="350" />
            </Array>
          </mxGeometry>
        </mxCell>
        <mxCell id="Hv7GfvZW4lcu2BsyJIzJ-16" style="edgeStyle=orthogonalEdgeStyle;rounded=0;orthogonalLoop=1;jettySize=auto;html=1;endArrow=none;endFill=0;startArrow=ERmandOne;startFill=0;" parent="1" source="9k3ozad7-vAkzGbdjPDx-1" target="9k3ozad7-vAkzGbdjPDx-54" edge="1">
          <mxGeometry relative="1" as="geometry">
            <Array as="points">
              <mxPoint x="-15" y="260" />
            </Array>
          </mxGeometry>
        </mxCell>
        <mxCell id="Hv7GfvZW4lcu2BsyJIzJ-26" style="edgeStyle=orthogonalEdgeStyle;rounded=0;orthogonalLoop=1;jettySize=auto;html=1;startArrow=ERmandOne;startFill=0;endArrow=none;endFill=0;" parent="1" source="9k3ozad7-vAkzGbdjPDx-1" target="Hv7GfvZW4lcu2BsyJIzJ-25" edge="1">
          <mxGeometry relative="1" as="geometry" />
        </mxCell>
        <mxCell id="9k3ozad7-vAkzGbdjPDx-1" value="Kepala dinas" style="rounded=0;whiteSpace=wrap;html=1;" parent="1" vertex="1">
          <mxGeometry x="50" y="210" width="120" height="60" as="geometry" />
        </mxCell>
        <mxCell id="9k3ozad7-vAkzGbdjPDx-21" style="edgeStyle=orthogonalEdgeStyle;rounded=0;orthogonalLoop=1;jettySize=auto;html=1;startArrow=ERmandOne;startFill=0;endArrow=none;endFill=0;" parent="1" source="9k3ozad7-vAkzGbdjPDx-2" target="9k3ozad7-vAkzGbdjPDx-20" edge="1">
          <mxGeometry relative="1" as="geometry">
            <Array as="points">
              <mxPoint x="705" y="750" />
              <mxPoint x="705" y="750" />
            </Array>
          </mxGeometry>
        </mxCell>
        <mxCell id="Hv7GfvZW4lcu2BsyJIzJ-5" style="edgeStyle=orthogonalEdgeStyle;rounded=0;orthogonalLoop=1;jettySize=auto;html=1;endArrow=none;endFill=0;startArrow=ERmandOne;startFill=0;" parent="1" source="9k3ozad7-vAkzGbdjPDx-2" target="Hv7GfvZW4lcu2BsyJIzJ-4" edge="1">
          <mxGeometry relative="1" as="geometry">
            <Array as="points">
              <mxPoint x="435" y="850" />
            </Array>
          </mxGeometry>
        </mxCell>
        <mxCell id="Hv7GfvZW4lcu2BsyJIzJ-14" style="edgeStyle=orthogonalEdgeStyle;rounded=0;orthogonalLoop=1;jettySize=auto;html=1;endArrow=none;endFill=0;startArrow=ERmandOne;startFill=0;" parent="1" source="9k3ozad7-vAkzGbdjPDx-2" target="Hv7GfvZW4lcu2BsyJIzJ-13" edge="1">
          <mxGeometry relative="1" as="geometry">
            <Array as="points">
              <mxPoint x="685" y="1035" />
            </Array>
          </mxGeometry>
        </mxCell>
        <mxCell id="9k3ozad7-vAkzGbdjPDx-2" value="Kepala Bidang" style="rounded=0;whiteSpace=wrap;html=1;" parent="1" vertex="1">
          <mxGeometry x="625" y="830" width="120" height="60" as="geometry" />
        </mxCell>
        <mxCell id="9k3ozad7-vAkzGbdjPDx-52" style="edgeStyle=orthogonalEdgeStyle;rounded=0;orthogonalLoop=1;jettySize=auto;html=1;startArrow=ERmandOne;startFill=0;endArrow=none;endFill=0;" parent="1" source="9k3ozad7-vAkzGbdjPDx-3" target="9k3ozad7-vAkzGbdjPDx-51" edge="1">
          <mxGeometry relative="1" as="geometry" />
        </mxCell>
        <mxCell id="Hv7GfvZW4lcu2BsyJIzJ-19" style="edgeStyle=orthogonalEdgeStyle;rounded=0;orthogonalLoop=1;jettySize=auto;html=1;endArrow=none;endFill=0;startArrow=ERmandOne;startFill=0;" parent="1" source="9k3ozad7-vAkzGbdjPDx-3" target="9k3ozad7-vAkzGbdjPDx-26" edge="1">
          <mxGeometry relative="1" as="geometry">
            <Array as="points">
              <mxPoint x="-525" y="580" />
            </Array>
          </mxGeometry>
        </mxCell>
        <mxCell id="Hv7GfvZW4lcu2BsyJIzJ-29" style="edgeStyle=orthogonalEdgeStyle;rounded=0;orthogonalLoop=1;jettySize=auto;html=1;endArrow=none;endFill=0;startArrow=ERmandOne;startFill=0;" parent="1" source="9k3ozad7-vAkzGbdjPDx-3" target="Hv7GfvZW4lcu2BsyJIzJ-28" edge="1">
          <mxGeometry relative="1" as="geometry" />
        </mxCell>
        <mxCell id="9k3ozad7-vAkzGbdjPDx-3" value="Koordinator Badan Penyuluh" style="rounded=0;whiteSpace=wrap;html=1;" parent="1" vertex="1">
          <mxGeometry x="-460" y="550" width="120" height="60" as="geometry" />
        </mxCell>
        <mxCell id="9k3ozad7-vAkzGbdjPDx-9" value="" style="edgeStyle=orthogonalEdgeStyle;rounded=0;orthogonalLoop=1;jettySize=auto;html=1;startArrow=none;startFill=0;endArrow=ERoneToMany;endFill=0;labelBorderColor=default;fontFamily=Times New Roman;labelBackgroundColor=default;" parent="1" source="9k3ozad7-vAkzGbdjPDx-7" target="9k3ozad7-vAkzGbdjPDx-5" edge="1">
          <mxGeometry relative="1" as="geometry" />
        </mxCell>
        <mxCell id="9k3ozad7-vAkzGbdjPDx-4" value="Proposal Pengadaan Bantuan Tani" style="rounded=0;whiteSpace=wrap;html=1;" parent="1" vertex="1">
          <mxGeometry x="50" y="830" width="120" height="60" as="geometry" />
        </mxCell>
        <mxCell id="9k3ozad7-vAkzGbdjPDx-5" value="Hasil Pengadaan Bantuan Tani" style="rounded=0;whiteSpace=wrap;html=1;" parent="1" vertex="1">
          <mxGeometry x="50" y="1005" width="120" height="60" as="geometry" />
        </mxCell>
        <mxCell id="9k3ozad7-vAkzGbdjPDx-11" value="" style="edgeStyle=orthogonalEdgeStyle;rounded=0;orthogonalLoop=1;jettySize=auto;html=1;startArrow=ERmandOne;startFill=0;endArrow=none;endFill=0;labelBorderColor=default;fontFamily=Times New Roman;labelBackgroundColor=default;" parent="1" source="9k3ozad7-vAkzGbdjPDx-4" target="9k3ozad7-vAkzGbdjPDx-7" edge="1">
          <mxGeometry relative="1" as="geometry">
            <mxPoint x="380" y="440" as="sourcePoint" />
            <mxPoint x="380" y="620" as="targetPoint" />
          </mxGeometry>
        </mxCell>
        <mxCell id="9k3ozad7-vAkzGbdjPDx-7" value="Memiliki" style="rhombus;whiteSpace=wrap;html=1;verticalAlign=middle;" parent="1" vertex="1">
          <mxGeometry x="70" y="910" width="80" height="80" as="geometry" />
        </mxCell>
        <mxCell id="9k3ozad7-vAkzGbdjPDx-16" value="" style="edgeStyle=orthogonalEdgeStyle;rounded=0;orthogonalLoop=1;jettySize=auto;html=1;startArrow=ERmandOne;startFill=0;endArrow=none;endFill=0;" parent="1" source="9k3ozad7-vAkzGbdjPDx-1" target="9k3ozad7-vAkzGbdjPDx-15" edge="1">
          <mxGeometry relative="1" as="geometry">
            <mxPoint x="120" y="290" as="sourcePoint" />
            <mxPoint x="320" y="410" as="targetPoint" />
            <Array as="points" />
          </mxGeometry>
        </mxCell>
        <mxCell id="9k3ozad7-vAkzGbdjPDx-15" value="Menyetujui Pelaksanaan" style="rhombus;whiteSpace=wrap;html=1;verticalAlign=middle;" parent="1" vertex="1">
          <mxGeometry x="45" y="345" width="130" height="130" as="geometry" />
        </mxCell>
        <mxCell id="yIZOIEnAFXjA0XGJJJkD-4" style="edgeStyle=orthogonalEdgeStyle;rounded=0;orthogonalLoop=1;jettySize=auto;html=1;endArrow=none;endFill=0;startArrow=ERmandOne;startFill=0;" edge="1" parent="1" source="9k3ozad7-vAkzGbdjPDx-17" target="yIZOIEnAFXjA0XGJJJkD-3">
          <mxGeometry relative="1" as="geometry">
            <Array as="points">
              <mxPoint x="650" y="165" />
            </Array>
          </mxGeometry>
        </mxCell>
        <mxCell id="9k3ozad7-vAkzGbdjPDx-17" value="Bidang Pertanian" style="rounded=0;whiteSpace=wrap;html=1;" parent="1" vertex="1">
          <mxGeometry x="625" y="45" width="120" height="60" as="geometry" />
        </mxCell>
        <mxCell id="9k3ozad7-vAkzGbdjPDx-22" style="edgeStyle=orthogonalEdgeStyle;rounded=0;orthogonalLoop=1;jettySize=auto;html=1;endArrow=ERoneToMany;endFill=0;" parent="1" source="9k3ozad7-vAkzGbdjPDx-20" target="9k3ozad7-vAkzGbdjPDx-17" edge="1">
          <mxGeometry relative="1" as="geometry">
            <Array as="points">
              <mxPoint x="705" y="250" />
              <mxPoint x="705" y="250" />
            </Array>
          </mxGeometry>
        </mxCell>
        <mxCell id="9k3ozad7-vAkzGbdjPDx-20" value="Memiliki" style="rhombus;whiteSpace=wrap;html=1;verticalAlign=middle;" parent="1" vertex="1">
          <mxGeometry x="640" y="380" width="130" height="130" as="geometry" />
        </mxCell>
        <mxCell id="Hv7GfvZW4lcu2BsyJIzJ-22" style="edgeStyle=orthogonalEdgeStyle;rounded=0;orthogonalLoop=1;jettySize=auto;html=1;startArrow=ERmandOne;startFill=0;endArrow=none;endFill=0;" parent="1" source="9k3ozad7-vAkzGbdjPDx-24" target="Hv7GfvZW4lcu2BsyJIzJ-21" edge="1">
          <mxGeometry relative="1" as="geometry" />
        </mxCell>
        <mxCell id="9k3ozad7-vAkzGbdjPDx-24" value="Kecamatan" style="rounded=0;whiteSpace=wrap;html=1;" parent="1" vertex="1">
          <mxGeometry x="-460" y="45" width="120" height="60" as="geometry" />
        </mxCell>
        <mxCell id="9k3ozad7-vAkzGbdjPDx-25" style="edgeStyle=orthogonalEdgeStyle;rounded=0;orthogonalLoop=1;jettySize=auto;html=1;endArrow=ERoneToMany;endFill=0;" parent="1" source="9k3ozad7-vAkzGbdjPDx-26" target="9k3ozad7-vAkzGbdjPDx-24" edge="1">
          <mxGeometry relative="1" as="geometry">
            <Array as="points">
              <mxPoint x="-525" y="75" />
            </Array>
          </mxGeometry>
        </mxCell>
        <mxCell id="9k3ozad7-vAkzGbdjPDx-26" value="Memiliki" style="rhombus;whiteSpace=wrap;html=1;verticalAlign=middle;" parent="1" vertex="1">
          <mxGeometry x="-590" y="300" width="130" height="130" as="geometry" />
        </mxCell>
        <mxCell id="9k3ozad7-vAkzGbdjPDx-30" style="edgeStyle=orthogonalEdgeStyle;rounded=0;orthogonalLoop=1;jettySize=auto;html=1;startArrow=ERmandOne;startFill=0;endArrow=none;endFill=0;" parent="1" source="9k3ozad7-vAkzGbdjPDx-1" target="9k3ozad7-vAkzGbdjPDx-32" edge="1">
          <mxGeometry relative="1" as="geometry">
            <mxPoint x="290" y="320" as="sourcePoint" />
            <mxPoint x="230" y="170" as="targetPoint" />
            <Array as="points">
              <mxPoint x="125" y="75" />
            </Array>
          </mxGeometry>
        </mxCell>
        <mxCell id="9k3ozad7-vAkzGbdjPDx-31" style="edgeStyle=orthogonalEdgeStyle;rounded=0;orthogonalLoop=1;jettySize=auto;html=1;endArrow=ERoneToMany;endFill=0;" parent="1" source="9k3ozad7-vAkzGbdjPDx-32" target="9k3ozad7-vAkzGbdjPDx-17" edge="1">
          <mxGeometry relative="1" as="geometry">
            <mxPoint x="505" y="530" as="targetPoint" />
          </mxGeometry>
        </mxCell>
        <mxCell id="9k3ozad7-vAkzGbdjPDx-32" value="Memanajemen" style="rhombus;whiteSpace=wrap;html=1;verticalAlign=middle;" parent="1" vertex="1">
          <mxGeometry x="225" y="10" width="130" height="130" as="geometry" />
        </mxCell>
        <mxCell id="9k3ozad7-vAkzGbdjPDx-33" style="edgeStyle=orthogonalEdgeStyle;rounded=0;orthogonalLoop=1;jettySize=auto;html=1;startArrow=ERmandOne;startFill=0;endArrow=none;endFill=0;" parent="1" source="9k3ozad7-vAkzGbdjPDx-1" target="9k3ozad7-vAkzGbdjPDx-35" edge="1">
          <mxGeometry relative="1" as="geometry">
            <mxPoint x="-267.5" y="10" as="sourcePoint" />
            <Array as="points">
              <mxPoint x="95" y="75" />
            </Array>
          </mxGeometry>
        </mxCell>
        <mxCell id="9k3ozad7-vAkzGbdjPDx-34" style="edgeStyle=orthogonalEdgeStyle;rounded=0;orthogonalLoop=1;jettySize=auto;html=1;endArrow=ERoneToMany;endFill=0;" parent="1" source="9k3ozad7-vAkzGbdjPDx-35" target="9k3ozad7-vAkzGbdjPDx-24" edge="1">
          <mxGeometry relative="1" as="geometry">
            <mxPoint x="-52.5" y="220" as="targetPoint" />
          </mxGeometry>
        </mxCell>
        <mxCell id="9k3ozad7-vAkzGbdjPDx-35" value="Memanajemen" style="rhombus;whiteSpace=wrap;html=1;verticalAlign=middle;" parent="1" vertex="1">
          <mxGeometry x="-160" y="10" width="130" height="130" as="geometry" />
        </mxCell>
        <mxCell id="9k3ozad7-vAkzGbdjPDx-36" style="edgeStyle=orthogonalEdgeStyle;rounded=0;orthogonalLoop=1;jettySize=auto;html=1;startArrow=ERmandOne;startFill=0;endArrow=none;endFill=0;" parent="1" source="9k3ozad7-vAkzGbdjPDx-3" target="9k3ozad7-vAkzGbdjPDx-38" edge="1">
          <mxGeometry relative="1" as="geometry">
            <mxPoint x="-470" y="847.5" as="sourcePoint" />
            <Array as="points">
              <mxPoint x="-400" y="875" />
            </Array>
          </mxGeometry>
        </mxCell>
        <mxCell id="9k3ozad7-vAkzGbdjPDx-37" style="edgeStyle=orthogonalEdgeStyle;rounded=0;orthogonalLoop=1;jettySize=auto;html=1;endArrow=ERoneToMany;endFill=0;" parent="1" source="9k3ozad7-vAkzGbdjPDx-38" target="9k3ozad7-vAkzGbdjPDx-4" edge="1">
          <mxGeometry relative="1" as="geometry">
            <mxPoint x="-130" y="732.5" as="targetPoint" />
            <Array as="points">
              <mxPoint x="-90" y="875" />
              <mxPoint x="-90" y="875" />
            </Array>
          </mxGeometry>
        </mxCell>
        <mxCell id="9k3ozad7-vAkzGbdjPDx-38" value="Membuat" style="rhombus;whiteSpace=wrap;html=1;verticalAlign=middle;" parent="1" vertex="1">
          <mxGeometry x="-360" y="810" width="130" height="130" as="geometry" />
        </mxCell>
        <mxCell id="yIZOIEnAFXjA0XGJJJkD-12" style="edgeStyle=orthogonalEdgeStyle;rounded=0;orthogonalLoop=1;jettySize=auto;html=1;endArrow=none;endFill=0;startArrow=ERmandOne;startFill=0;" edge="1" parent="1" source="9k3ozad7-vAkzGbdjPDx-40" target="yIZOIEnAFXjA0XGJJJkD-11">
          <mxGeometry relative="1" as="geometry" />
        </mxCell>
        <mxCell id="9k3ozad7-vAkzGbdjPDx-40" value="Kelompok Tani" style="rounded=0;whiteSpace=wrap;html=1;" parent="1" vertex="1">
          <mxGeometry x="-90" y="550" width="120" height="60" as="geometry" />
        </mxCell>
        <mxCell id="Hv7GfvZW4lcu2BsyJIzJ-17" style="edgeStyle=orthogonalEdgeStyle;rounded=0;orthogonalLoop=1;jettySize=auto;html=1;endArrow=ERmany;endFill=0;" parent="1" source="9k3ozad7-vAkzGbdjPDx-51" target="9k3ozad7-vAkzGbdjPDx-40" edge="1">
          <mxGeometry relative="1" as="geometry" />
        </mxCell>
        <mxCell id="9k3ozad7-vAkzGbdjPDx-51" value="Memanajemen" style="rhombus;whiteSpace=wrap;html=1;verticalAlign=middle;" parent="1" vertex="1">
          <mxGeometry x="-300" y="515" width="130" height="130" as="geometry" />
        </mxCell>
        <mxCell id="Hv7GfvZW4lcu2BsyJIzJ-18" style="edgeStyle=orthogonalEdgeStyle;rounded=0;orthogonalLoop=1;jettySize=auto;html=1;endArrow=ERoneToMany;endFill=0;" parent="1" source="9k3ozad7-vAkzGbdjPDx-54" target="9k3ozad7-vAkzGbdjPDx-40" edge="1">
          <mxGeometry relative="1" as="geometry">
            <Array as="points">
              <mxPoint x="-10" y="490" />
              <mxPoint x="-10" y="490" />
            </Array>
          </mxGeometry>
        </mxCell>
        <mxCell id="9k3ozad7-vAkzGbdjPDx-54" value="Memanajemen" style="rhombus;whiteSpace=wrap;html=1;verticalAlign=middle;" parent="1" vertex="1">
          <mxGeometry x="-80" y="300" width="130" height="130" as="geometry" />
        </mxCell>
        <mxCell id="9k3ozad7-vAkzGbdjPDx-61" value="" style="edgeStyle=orthogonalEdgeStyle;rounded=0;orthogonalLoop=1;jettySize=auto;html=1;endArrow=none;endFill=0;startArrow=ERmandOne;startFill=0;" parent="1" source="9k3ozad7-vAkzGbdjPDx-2" target="9k3ozad7-vAkzGbdjPDx-60" edge="1">
          <mxGeometry relative="1" as="geometry">
            <mxPoint x="625" y="640" as="sourcePoint" />
            <mxPoint x="170" y="640" as="targetPoint" />
            <Array as="points">
              <mxPoint x="485" y="875" />
              <mxPoint x="485" y="875" />
            </Array>
          </mxGeometry>
        </mxCell>
        <mxCell id="9k3ozad7-vAkzGbdjPDx-71" style="edgeStyle=orthogonalEdgeStyle;rounded=0;orthogonalLoop=1;jettySize=auto;html=1;entryX=1;entryY=0.5;entryDx=0;entryDy=0;endArrow=ERoneToMany;endFill=0;" parent="1" source="9k3ozad7-vAkzGbdjPDx-60" target="9k3ozad7-vAkzGbdjPDx-4" edge="1">
          <mxGeometry relative="1" as="geometry" />
        </mxCell>
        <mxCell id="9k3ozad7-vAkzGbdjPDx-60" value="Mengajukan Pelaksanaan&amp;nbsp;" style="rhombus;whiteSpace=wrap;html=1;verticalAlign=middle;" parent="1" vertex="1">
          <mxGeometry x="230" y="810" width="130" height="130" as="geometry" />
        </mxCell>
        <mxCell id="9k3ozad7-vAkzGbdjPDx-62" style="edgeStyle=orthogonalEdgeStyle;rounded=0;orthogonalLoop=1;jettySize=auto;html=1;endArrow=none;endFill=0;startArrow=ERmandOne;startFill=0;" parent="1" source="9k3ozad7-vAkzGbdjPDx-2" target="9k3ozad7-vAkzGbdjPDx-68" edge="1">
          <mxGeometry relative="1" as="geometry">
            <mxPoint x="720" y="279.79" as="sourcePoint" />
            <Array as="points">
              <mxPoint x="665" y="695" />
              <mxPoint x="560" y="695" />
            </Array>
          </mxGeometry>
        </mxCell>
        <mxCell id="9k3ozad7-vAkzGbdjPDx-63" style="edgeStyle=orthogonalEdgeStyle;rounded=0;orthogonalLoop=1;jettySize=auto;html=1;startArrow=ERmandOne;startFill=0;endArrow=none;endFill=0;" parent="1" source="9k3ozad7-vAkzGbdjPDx-1" target="9k3ozad7-vAkzGbdjPDx-66" edge="1">
          <mxGeometry relative="1" as="geometry">
            <mxPoint x="170" y="569.79" as="sourcePoint" />
            <mxPoint x="390" y="330" as="targetPoint" />
            <Array as="points">
              <mxPoint x="240" y="240" />
            </Array>
          </mxGeometry>
        </mxCell>
        <mxCell id="9k3ozad7-vAkzGbdjPDx-64" value="Kamus Usulan" style="rounded=0;whiteSpace=wrap;html=1;" parent="1" vertex="1">
          <mxGeometry x="370" y="210" width="120" height="60" as="geometry" />
        </mxCell>
        <mxCell id="9k3ozad7-vAkzGbdjPDx-66" value="Memanajemen" style="rhombus;whiteSpace=wrap;html=1;verticalAlign=middle;" parent="1" vertex="1">
          <mxGeometry x="195" y="175.00000000000003" width="130" height="130" as="geometry" />
        </mxCell>
        <mxCell id="9k3ozad7-vAkzGbdjPDx-67" style="edgeStyle=orthogonalEdgeStyle;rounded=0;orthogonalLoop=1;jettySize=auto;html=1;endArrow=ERoneToMany;endFill=0;" parent="1" source="9k3ozad7-vAkzGbdjPDx-68" target="9k3ozad7-vAkzGbdjPDx-64" edge="1">
          <mxGeometry relative="1" as="geometry">
            <Array as="points">
              <mxPoint x="560" y="260" />
            </Array>
          </mxGeometry>
        </mxCell>
        <mxCell id="9k3ozad7-vAkzGbdjPDx-68" value="Memanajemen" style="rhombus;whiteSpace=wrap;html=1;verticalAlign=middle;" parent="1" vertex="1">
          <mxGeometry x="495" y="430" width="130" height="130" as="geometry" />
        </mxCell>
        <mxCell id="9k3ozad7-vAkzGbdjPDx-69" style="edgeStyle=orthogonalEdgeStyle;rounded=0;orthogonalLoop=1;jettySize=auto;html=1;endArrow=ERoneToMany;endFill=0;" parent="1" source="9k3ozad7-vAkzGbdjPDx-66" target="9k3ozad7-vAkzGbdjPDx-64" edge="1">
          <mxGeometry relative="1" as="geometry">
            <mxPoint x="695" y="225" as="sourcePoint" />
            <mxPoint x="550" y="230" as="targetPoint" />
          </mxGeometry>
        </mxCell>
        <mxCell id="yIZOIEnAFXjA0XGJJJkD-1" style="edgeStyle=orthogonalEdgeStyle;rounded=0;orthogonalLoop=1;jettySize=auto;html=1;endArrow=none;endFill=0;startArrow=ERmandOne;startFill=0;" edge="1" parent="1" source="9k3ozad7-vAkzGbdjPDx-70" target="Hv7GfvZW4lcu2BsyJIzJ-10">
          <mxGeometry relative="1" as="geometry" />
        </mxCell>
        <mxCell id="9k3ozad7-vAkzGbdjPDx-70" value="Program Pengadaan" style="rounded=0;whiteSpace=wrap;html=1;" parent="1" vertex="1">
          <mxGeometry x="235" y="590" width="120" height="60" as="geometry" />
        </mxCell>
        <mxCell id="Hv7GfvZW4lcu2BsyJIzJ-3" style="edgeStyle=orthogonalEdgeStyle;rounded=0;orthogonalLoop=1;jettySize=auto;html=1;endArrow=ERoneToMany;endFill=0;" parent="1" source="Hv7GfvZW4lcu2BsyJIzJ-1" target="9k3ozad7-vAkzGbdjPDx-70" edge="1">
          <mxGeometry relative="1" as="geometry" />
        </mxCell>
        <mxCell id="Hv7GfvZW4lcu2BsyJIzJ-1" value="Memanajemen" style="rhombus;whiteSpace=wrap;html=1;verticalAlign=middle;" parent="1" vertex="1">
          <mxGeometry x="230" y="380" width="130" height="130" as="geometry" />
        </mxCell>
        <mxCell id="Hv7GfvZW4lcu2BsyJIzJ-6" style="edgeStyle=orthogonalEdgeStyle;rounded=0;orthogonalLoop=1;jettySize=auto;html=1;endArrow=ERoneToMany;endFill=0;" parent="1" source="Hv7GfvZW4lcu2BsyJIzJ-4" target="9k3ozad7-vAkzGbdjPDx-70" edge="1">
          <mxGeometry relative="1" as="geometry" />
        </mxCell>
        <mxCell id="Hv7GfvZW4lcu2BsyJIzJ-4" value="Memanajemen" style="rhombus;whiteSpace=wrap;html=1;verticalAlign=middle;" parent="1" vertex="1">
          <mxGeometry x="370" y="680" width="130" height="130" as="geometry" />
        </mxCell>
        <mxCell id="yIZOIEnAFXjA0XGJJJkD-2" style="edgeStyle=orthogonalEdgeStyle;rounded=0;orthogonalLoop=1;jettySize=auto;html=1;endArrow=ERoneToMany;endFill=0;" edge="1" parent="1" source="Hv7GfvZW4lcu2BsyJIzJ-10" target="9k3ozad7-vAkzGbdjPDx-64">
          <mxGeometry relative="1" as="geometry" />
        </mxCell>
        <mxCell id="Hv7GfvZW4lcu2BsyJIzJ-10" value="Memiliki" style="rhombus;whiteSpace=wrap;html=1;verticalAlign=middle;" parent="1" vertex="1">
          <mxGeometry x="365" y="390" width="130" height="130" as="geometry" />
        </mxCell>
        <mxCell id="Hv7GfvZW4lcu2BsyJIzJ-15" style="edgeStyle=orthogonalEdgeStyle;rounded=0;orthogonalLoop=1;jettySize=auto;html=1;endArrow=ERoneToMany;endFill=0;" parent="1" source="Hv7GfvZW4lcu2BsyJIzJ-13" target="9k3ozad7-vAkzGbdjPDx-5" edge="1">
          <mxGeometry relative="1" as="geometry" />
        </mxCell>
        <mxCell id="Hv7GfvZW4lcu2BsyJIzJ-13" value="Mendata" style="rhombus;whiteSpace=wrap;html=1;verticalAlign=middle;" parent="1" vertex="1">
          <mxGeometry x="230" y="970" width="130" height="130" as="geometry" />
        </mxCell>
        <mxCell id="Hv7GfvZW4lcu2BsyJIzJ-24" style="edgeStyle=orthogonalEdgeStyle;rounded=0;orthogonalLoop=1;jettySize=auto;html=1;endArrow=ERoneToMany;endFill=0;" parent="1" source="Hv7GfvZW4lcu2BsyJIzJ-21" target="Hv7GfvZW4lcu2BsyJIzJ-23" edge="1">
          <mxGeometry relative="1" as="geometry">
            <Array as="points">
              <mxPoint x="-310" y="205" />
            </Array>
          </mxGeometry>
        </mxCell>
        <mxCell id="Hv7GfvZW4lcu2BsyJIzJ-21" value="Memiliki" style="rhombus;whiteSpace=wrap;html=1;verticalAlign=middle;" parent="1" vertex="1">
          <mxGeometry x="-465" y="140" width="130" height="130" as="geometry" />
        </mxCell>
        <mxCell id="yIZOIEnAFXjA0XGJJJkD-8" style="edgeStyle=orthogonalEdgeStyle;rounded=0;orthogonalLoop=1;jettySize=auto;html=1;startArrow=ERmandOne;startFill=0;endArrow=none;endFill=0;" edge="1" parent="1" source="Hv7GfvZW4lcu2BsyJIzJ-23" target="yIZOIEnAFXjA0XGJJJkD-7">
          <mxGeometry relative="1" as="geometry" />
        </mxCell>
        <mxCell id="Hv7GfvZW4lcu2BsyJIzJ-23" value="Desa" style="rounded=0;whiteSpace=wrap;html=1;" parent="1" vertex="1">
          <mxGeometry x="-340" y="290" width="120" height="60" as="geometry" />
        </mxCell>
        <mxCell id="Hv7GfvZW4lcu2BsyJIzJ-27" style="edgeStyle=orthogonalEdgeStyle;rounded=0;orthogonalLoop=1;jettySize=auto;html=1;endArrow=ERoneToMany;endFill=0;" parent="1" source="Hv7GfvZW4lcu2BsyJIzJ-25" target="Hv7GfvZW4lcu2BsyJIzJ-23" edge="1">
          <mxGeometry relative="1" as="geometry">
            <Array as="points">
              <mxPoint x="-260" y="240" />
            </Array>
          </mxGeometry>
        </mxCell>
        <mxCell id="Hv7GfvZW4lcu2BsyJIzJ-25" value="Memanajemen" style="rhombus;whiteSpace=wrap;html=1;verticalAlign=middle;" parent="1" vertex="1">
          <mxGeometry x="-170" y="175" width="130" height="130" as="geometry" />
        </mxCell>
        <mxCell id="Hv7GfvZW4lcu2BsyJIzJ-30" style="edgeStyle=orthogonalEdgeStyle;rounded=0;orthogonalLoop=1;jettySize=auto;html=1;endArrow=ERoneToMany;endFill=0;" parent="1" source="Hv7GfvZW4lcu2BsyJIzJ-28" target="Hv7GfvZW4lcu2BsyJIzJ-23" edge="1">
          <mxGeometry relative="1" as="geometry">
            <Array as="points">
              <mxPoint x="-300" y="395" />
            </Array>
          </mxGeometry>
        </mxCell>
        <mxCell id="Hv7GfvZW4lcu2BsyJIzJ-28" value="Memiliki" style="rhombus;whiteSpace=wrap;html=1;verticalAlign=middle;" parent="1" vertex="1">
          <mxGeometry x="-465" y="330" width="130" height="130" as="geometry" />
        </mxCell>
        <mxCell id="yIZOIEnAFXjA0XGJJJkD-5" style="edgeStyle=orthogonalEdgeStyle;rounded=0;orthogonalLoop=1;jettySize=auto;html=1;endArrow=ERoneToMany;endFill=0;" edge="1" parent="1" source="yIZOIEnAFXjA0XGJJJkD-3" target="9k3ozad7-vAkzGbdjPDx-64">
          <mxGeometry relative="1" as="geometry">
            <Array as="points">
              <mxPoint x="430" y="165" />
            </Array>
          </mxGeometry>
        </mxCell>
        <mxCell id="yIZOIEnAFXjA0XGJJJkD-3" value="Memiliki" style="rhombus;whiteSpace=wrap;html=1;verticalAlign=middle;" vertex="1" parent="1">
          <mxGeometry x="475" y="100" width="130" height="130" as="geometry" />
        </mxCell>
        <mxCell id="yIZOIEnAFXjA0XGJJJkD-9" style="edgeStyle=orthogonalEdgeStyle;rounded=0;orthogonalLoop=1;jettySize=auto;html=1;endArrow=ERmany;endFill=0;" edge="1" parent="1" source="yIZOIEnAFXjA0XGJJJkD-7" target="9k3ozad7-vAkzGbdjPDx-40">
          <mxGeometry relative="1" as="geometry">
            <Array as="points">
              <mxPoint x="-60" y="455" />
            </Array>
          </mxGeometry>
        </mxCell>
        <mxCell id="yIZOIEnAFXjA0XGJJJkD-7" value="Memiliki" style="rhombus;whiteSpace=wrap;html=1;verticalAlign=middle;" vertex="1" parent="1">
          <mxGeometry x="-240" y="390" width="130" height="130" as="geometry" />
        </mxCell>
        <mxCell id="yIZOIEnAFXjA0XGJJJkD-13" style="edgeStyle=orthogonalEdgeStyle;rounded=0;orthogonalLoop=1;jettySize=auto;html=1;endArrow=ERmany;endFill=0;" edge="1" parent="1" source="yIZOIEnAFXjA0XGJJJkD-11" target="9k3ozad7-vAkzGbdjPDx-4">
          <mxGeometry relative="1" as="geometry">
            <Array as="points">
              <mxPoint x="-30" y="850" />
            </Array>
          </mxGeometry>
        </mxCell>
        <mxCell id="yIZOIEnAFXjA0XGJJJkD-11" value="Memiliki" style="rhombus;whiteSpace=wrap;html=1;verticalAlign=middle;" vertex="1" parent="1">
          <mxGeometry x="-95" y="650" width="130" height="130" as="geometry" />
        </mxCell>
      </root>
    </mxGraphModel>
  </diagram>
</mxfile>
